<svg width="24" height="24" viewBox="0 0 24 24" fill="none" xmlns="http://www.w3.org/2000/svg">
<path d="M9.981 14.811L9.514 17.537L11.963 16.25L14.412 17.537L13.944 14.811L15.926 12.879L13.188 12.481L11.963 10L10.738 12.481L8 12.879L9.981 14.811Z" fill="url(#paint0_linear_341_1077)"/>
<path d="M19 4H17V2H15V4H9V2H7V4H5C3.897 4 3 4.897 3 6V20C3 21.103 3.897 22 5 22H19C20.103 22 21 21.103 21 20V6C21 4.897 20.103 4 19 4ZM19.002 20H5V8H19L19.002 20Z" fill="url(#paint1_linear_341_1077)"/>
<defs>
<linearGradient id="paint0_linear_341_1077" x1="11.963" y1="10" x2="11.963" y2="17.537" gradientUnits="userSpaceOnUse">
<stop stop-color="#E3C89A"/>
<stop offset="1" stop-color="#B39466"/>
</linearGradient>
<linearGradient id="paint1_linear_341_1077" x1="12" y1="2" x2="12" y2="22" gradientUnits="userSpaceOnUse">
<stop stop-color="#E3C89A"/>
<stop offset="1" stop-color="#B39466"/>
</linearGradient>
</defs>
</svg>
