<svg width="200" height="120" viewBox="0 0 200 120" fill="none" xmlns="http://www.w3.org/2000/svg">
<path d="M0 0H200V115C200 117.761 197.761 120 195 120H5C2.23857 120 0 117.761 0 115V0Z" fill="#272525"/>
<path fill-rule="evenodd" clip-rule="evenodd" d="M78.7021 22.0421L85.0413 15.7555H78.7021V22.0421ZM113.388 39.7761L114.986 41.3608L116.582 39.7761L114.986 38.1915L113.388 39.7761ZM99.0899 55.8789L98.1879 56.7734L99.0899 57.6679L99.9936 56.7734L99.0899 55.8789ZM78.7021 36.2878L92.2247 22.8792H86.6971L78.7021 30.8078V36.2878ZM83.7815 32.8926V37.1285L84.4087 37.7505L86.8128 35.3664C86.4621 33.8696 86.191 32.3064 86.0012 30.6895L83.7815 32.8926ZM80.3561 39.3656L82.6083 37.1303V34.056L78.7021 37.9298V43.4115L81.155 40.9789L80.3561 40.1866L79.9421 39.7761L80.3561 39.3656ZM83.1958 41.359L84.7937 39.7743L83.1958 38.1897L81.5979 39.7761L83.1958 41.359ZM83.9008 47.3426L88.5137 40.6419C87.9841 39.3943 87.5286 38.0696 87.1472 36.6785L85.2366 38.5733L86.0355 39.3656L86.4494 39.7761L86.0355 40.1866L83.6079 42.5905L83.194 43.001L82.7801 42.5905L81.9811 41.7982L79.0781 44.6806L83.9008 47.3426ZM84.9257 47.9091L89.6507 50.5173L91.2486 45.498C90.8147 44.9119 90.4062 44.2934 90.023 43.6463C89.6886 43.0799 89.3723 42.4901 89.0777 41.8788L84.9257 47.9091ZM78.7021 54.8948L83.2392 48.3034L78.7021 45.7974V54.8948ZM87.8449 56.1926L89.291 51.6448L84.2641 48.8681L79.2245 56.1926H87.8449ZM97.2642 56.0474L90.3357 52.222L89.0722 56.1926H97.1178L97.2642 56.0474ZM107.842 52.222L100.914 56.0474L101.06 56.1926H109.106L107.842 52.222ZM107.484 51.0945L106.053 46.6005C104.198 48.7588 101.942 50.3864 99.2851 51.3329L99.088 51.4028L98.891 51.3329C96.2339 50.3864 93.978 48.7606 92.1234 46.6005L90.6936 51.0945L98.121 55.1959L98.6741 54.6474L99.088 54.2369L99.502 54.6474L100.055 55.1959L107.484 51.0945ZM108.529 50.5191L113.254 47.9109L109.104 41.8824C108.809 42.4937 108.493 43.0834 108.158 43.6499C107.775 44.2988 107.367 44.9173 106.931 45.5016L108.529 50.5191ZM118.957 56.1926L113.916 48.8699L108.889 51.6466L110.337 56.1944H118.957V56.1926ZM119.478 45.7974L114.941 48.3034L119.478 54.8948V45.7974ZM119.102 44.6806L116.197 41.7999L115.398 42.5923L114.984 43.0028L114.57 42.5923L112.144 40.1866L111.73 39.7761L112.144 39.3656L112.943 38.5733L111.033 36.6785C110.651 38.0696 110.196 39.3943 109.666 40.6419L114.279 47.3426L119.102 44.6806ZM115.57 34.0542V37.1285L117.824 39.3638L118.238 39.7743L117.824 40.1848L117.025 40.9771L119.478 43.4097V37.9298L115.57 34.0542ZM105.957 22.8792L119.478 36.2878V30.8078L111.483 22.8792H105.957ZM112.179 30.6913C111.989 32.3082 111.719 33.8713 111.367 35.3664L113.773 37.7523L114.4 37.1303V32.8926L112.179 30.6913ZM101.062 22.8792L99.5038 24.4244L99.0899 24.8349L98.6759 24.4244L97.1178 22.8792H93.8786L89.7121 27.0111H97.6836V39.2061H101.082V40.3677H99.0899H96.5122V28.1727H88.5408L87.0622 29.6391C87.5647 34.8089 88.8843 39.4355 91.028 43.0619C93.0092 46.4123 95.697 48.9075 99.088 50.1731C102.481 48.9075 105.167 46.4141 107.15 43.0619C109.294 39.4355 110.615 34.8089 111.116 29.6391L109.637 28.1727H101.08V27.0111H108.466L104.297 22.8774H101.062V22.8792ZM95.3843 31.6037V32.7653L89.6977 31.6898V30.5282L95.3843 31.6037ZM102.976 32.7653V31.6037L108.661 30.5282V31.6898L102.976 32.7653ZM95.397 43.5172L97.4949 43.6517L98.3275 43.4276L99.089 43.6965L99.8504 43.4276L100.502 43.6517L102.781 43.5172V44.1411L99.089 44.6788L95.397 44.1411V43.5172ZM99.9918 22.2984L99.088 21.4021L98.1861 22.2984L99.088 23.1929L99.9918 22.2984ZM103.128 21.7176L99.0899 17.7112L95.0499 21.7176H97.116L98.6741 20.1706L99.088 19.7601L99.502 20.1706L101.06 21.7176H103.128ZM113.138 15.7555L119.478 22.0421V15.7555H113.138ZM99.6755 16.65L104.786 21.7158H111.967L112.139 21.8861L119.478 29.164V23.6841L111.483 15.7555H99.6737V16.65H99.6755ZM86.6971 15.7555L78.7021 23.6841V29.1658L86.0409 21.8879L86.2126 21.7176H93.3942L98.5024 16.6518V15.7555H86.6971Z" fill="url(#paint0_linear_164_1122)"/>
<path d="M35.4431 66.6499V75.2876L37.523 75.1606C38.227 75.1182 38.8029 74.9595 39.2509 74.6842C39.7202 74.3878 40.0509 74.0068 40.2428 73.541C40.4348 73.0753 40.5628 72.6624 40.6268 72.3025C40.6908 71.9215 40.7228 71.498 40.7228 71.0323C40.7228 70.1855 40.4988 69.3598 40.0509 68.5553C39.6242 67.7297 39.0376 67.1369 38.291 66.777C38.0137 66.6499 37.619 66.5864 37.107 66.5864C36.9364 66.5864 36.6591 66.597 36.2751 66.6182C35.8911 66.6394 35.6138 66.6499 35.4431 66.6499ZM45.0745 81.0672C45.0745 81.6388 44.9359 82.221 44.6586 82.8138C44.4026 83.3854 44.0079 83.9464 43.4746 84.4969C42.9627 85.0261 42.2267 85.4601 41.2668 85.7989C40.3068 86.1376 39.1976 86.307 37.939 86.307C37.7897 86.307 37.363 86.2964 36.6591 86.2752C35.9551 86.2752 34.9738 86.2646 33.7153 86.2435C32.4567 86.2435 31.0914 86.2435 29.6195 86.2435V85.7354L30.1955 85.6401C30.5794 85.5977 30.9741 85.4919 31.3794 85.3225C31.806 85.132 32.0407 84.9203 32.0834 84.6874C32.0834 83.6289 32.0834 81.5859 32.0834 78.5585C32.0834 75.5311 32.0834 73.3187 32.0834 71.9215C32.0834 69.6985 32.0834 68.1848 32.0834 67.3803C32.0407 67.1475 31.6887 66.9463 31.0274 66.777L30.0675 66.4594V65.9196C31.3261 65.9196 32.862 65.9301 34.6752 65.9513C36.5097 65.9513 37.6937 65.9513 38.227 65.9513C39.0376 65.9513 39.8375 66.1418 40.6268 66.5229C41.4374 66.904 42.1414 67.4968 42.7387 68.3013C43.336 69.0846 43.6346 69.9737 43.6346 70.9688C43.6346 70.9899 43.6346 71.0111 43.6346 71.0323C43.6133 72.1543 43.208 73.1917 42.4187 74.1444C41.6508 75.0759 40.5735 75.5628 39.1869 75.6052C43.112 75.9651 45.0745 77.7857 45.0745 81.0672ZM35.3472 76.145L35.3791 84.0523C35.3791 84.7509 35.4858 85.1955 35.6991 85.386C35.9124 85.5554 36.2858 85.6401 36.8191 85.6401C38.5896 85.6401 39.8695 85.3119 40.6588 84.6556C41.4481 83.9782 41.8427 82.8773 41.8427 81.353C41.8427 78.1774 40.3922 76.452 37.491 76.1768L35.3472 76.145Z" fill="url(#paint1_linear_164_1122)"/>
<path d="M67.221 86.2117H52.3739V85.7036C52.3739 85.7248 52.6726 85.7354 53.2699 85.7354C54.3151 85.7354 54.8911 85.4813 54.9978 84.9732C55.1898 83.83 55.2857 79.744 55.2857 72.7154C55.2857 69.6244 55.2431 67.9308 55.1578 67.6344C55.1151 67.4015 54.7098 67.2004 53.9418 67.031L52.7899 66.8087V66.2371C55.0511 66.3006 57.5683 66.3324 60.3414 66.3324C63.1359 66.3324 65.4078 66.3006 67.157 66.2371L67.253 70.8417H66.645C66.5384 70.3125 66.3784 69.8044 66.1651 69.3175C65.9517 68.8094 65.5891 68.3118 65.0771 67.8249C64.5652 67.3168 63.9785 67.0628 63.3172 67.0628H58.2936V75.7004H63.0293C64.0105 75.7004 64.5438 74.8642 64.6292 73.1917H65.3971V78.9078H64.7572C64.6505 77.2565 64.0425 76.4308 62.9333 76.4308H58.2936V84.0205C58.2936 85.0367 58.6669 85.5554 59.4135 85.5766H64.2452C64.7998 85.5554 65.3331 85.0896 65.8451 84.1793C66.3784 83.2478 66.6984 82.3163 66.805 81.3848H67.509L67.221 86.2117Z" fill="url(#paint2_linear_164_1122)"/>
<path d="M87.4476 77.447H81.016L77.9762 84.5286C77.9122 84.6345 77.8802 84.7403 77.8802 84.8462C77.8802 85.1426 78.1148 85.386 78.5841 85.5766C79.0534 85.7459 79.5227 85.8306 79.992 85.8306L80.024 86.3387L73.7204 86.3705V85.7354C73.7418 85.7354 73.7631 85.7354 73.7844 85.7354C74.1897 85.7354 74.627 85.6507 75.0964 85.4813C75.5657 85.2908 75.939 85.0367 76.2163 84.7192C76.5789 84.2957 78.0828 81.0884 80.728 75.0971L84.6958 66.1418H85.7517L92.7593 82.6233C93.3565 84.0417 94.0072 84.9203 94.7111 85.259C94.9031 85.3437 95.1058 85.4072 95.3191 85.4496C95.5324 85.4707 95.7351 85.4813 95.9271 85.4813C96.119 85.4813 96.2577 85.4919 96.343 85.5131L96.279 86.307C94.8498 86.2435 93.2392 86.2117 91.4473 86.2117C89.8261 86.2117 88.5142 86.2435 87.5116 86.307L87.5436 85.7036C87.5436 85.7248 87.7356 85.7354 88.1195 85.7354C88.8875 85.7354 89.4208 85.5554 89.7194 85.1955C89.8688 85.0261 89.9434 84.7933 89.9434 84.4969C89.9434 84.2216 89.8794 83.9147 89.7514 83.5759L89.5914 83.0996L87.4476 77.447ZM81.4 76.6849H87.1916L84.3438 69.8256L81.4 76.6849Z" fill="url(#paint3_linear_164_1122)"/>
<path d="M105.957 79.2889C105.957 80.4321 106.063 81.4271 106.276 82.2739C106.511 83.0996 106.799 83.7453 107.14 84.2111C107.482 84.6556 107.908 85.0156 108.42 85.2908C108.954 85.5448 109.444 85.7142 109.892 85.7989C110.34 85.8624 110.863 85.8941 111.46 85.8941C112.292 85.8941 113.007 85.7883 113.604 85.5766C114.223 85.3649 114.788 85.0156 115.3 84.5286C115.812 84.0417 116.196 83.3431 116.452 82.4327C116.729 81.5012 116.868 80.358 116.868 79.0031C116.868 78.7702 116.868 78.4844 116.868 78.1456C116.868 77.7857 116.868 77.3094 116.868 76.7166C116.868 73.7951 116.825 70.7677 116.74 67.6344C116.697 67.4015 116.239 67.2004 115.364 67.031L114.052 66.8087V66.3324C115.055 66.4171 116.217 66.4594 117.54 66.4594C118.948 66.4594 120.121 66.4171 121.06 66.3324V66.9675C120.057 67.031 119.118 67.2745 118.244 67.6979C118.18 69.0317 118.148 70.6512 118.148 72.5566L118.244 78.622C118.244 81.1836 117.625 83.1737 116.388 84.5921C115.151 85.9894 113.316 86.7304 110.884 86.8151C110.138 86.8151 109.402 86.741 108.676 86.5928C107.951 86.4657 107.204 86.2223 106.436 85.8624C105.669 85.5025 104.997 85.0473 104.421 84.4969C103.866 83.9253 103.397 83.1843 103.013 82.2739C102.65 81.3424 102.469 80.2945 102.469 79.1301C102.469 79.0666 102.479 78.7278 102.501 78.1139C102.543 77.4788 102.586 76.579 102.629 75.4146C102.671 74.2502 102.693 72.9588 102.693 71.5404C102.693 70.249 102.671 68.947 102.629 67.6344C102.586 67.4015 102.127 67.2004 101.253 67.031L99.9409 66.8087V66.3324C100.943 66.4171 102.341 66.4594 104.133 66.4594C106.053 66.4594 107.482 66.4171 108.42 66.3324V66.9675C107.162 67.0734 106.34 67.3168 105.957 67.6979C105.935 69.0952 105.925 70.7888 105.925 72.7789L105.957 79.2889Z" fill="url(#paint4_linear_164_1122)"/>
<path d="M134.343 85.0367C134.812 84.4439 135.047 83.8406 135.047 83.2266L135.079 66.9993C132.86 66.9781 131.74 66.9675 131.719 66.9675C131.207 66.9675 130.748 67.158 130.343 67.5391C129.938 67.9202 129.628 68.3965 129.415 68.9681C129.202 69.5186 129.02 70.069 128.871 70.6195C128.743 71.1487 128.668 71.6568 128.647 72.1437H128.039L128.167 66.2371C130.556 66.3006 133.596 66.3324 137.286 66.3324C140.764 66.3324 143.441 66.3006 145.318 66.2371L145.414 72.1437H144.774C144.582 68.7564 143.697 67.0522 142.118 67.031L138.374 66.9993L138.406 83.2266C138.406 83.9676 138.609 84.571 139.014 85.0367C139.334 85.4178 140.209 85.6189 141.638 85.6401V86.2435H131.815V85.6401C131.857 85.6401 131.921 85.6401 132.007 85.6401C132.092 85.6401 132.156 85.6401 132.199 85.6401C133.329 85.6189 134.044 85.4178 134.343 85.0367Z" fill="url(#paint5_linear_164_1122)"/>
<path d="M159.529 78.3679C158.078 75.0018 156.254 71.805 154.057 68.7776C153.567 68.1001 153.087 67.645 152.617 67.4121C152.084 67.158 151.476 66.9569 150.793 66.8087V66.3324C151.796 66.4171 153.279 66.4594 155.241 66.4594C157.332 66.4594 158.846 66.4171 159.785 66.3324V66.9675C158.59 67.0734 157.908 67.2533 157.737 67.5074C157.63 67.7191 157.556 67.9731 157.513 68.2695L157.449 68.6506C158.9 71.4451 160.382 74.1126 161.897 76.6531C164.99 71.1699 166.547 68.2801 166.568 67.9837C166.568 67.6873 166.323 67.465 165.832 67.3168L163.913 66.8087V66.3324C164.915 66.4171 166.035 66.4594 167.272 66.4594C168.531 66.4594 169.64 66.4171 170.6 66.3324V66.9675C169.726 67.0098 169.011 67.1898 168.456 67.5074C168.264 67.6344 168.008 67.8673 167.688 68.206L167.208 68.7141C164.691 73.0329 163.145 75.8063 162.569 77.0342C162.569 77.8387 162.611 80.5274 162.697 85.1002C162.697 85.6295 163.571 85.8941 165.32 85.8941V86.4975H156.617V85.9894C156.681 85.9894 156.798 85.9894 156.969 85.9894C158.548 85.9894 159.348 85.7459 159.369 85.259C159.412 82.782 159.465 80.485 159.529 78.3679Z" fill="url(#paint6_linear_164_1122)"/>
<path d="M76.0738 97.5974H72.6662L71.9322 99.219H71.2594L74.0554 93.1489H74.6933L77.4893 99.219H76.8078L76.0738 97.5974ZM75.8379 97.0771L74.37 93.8166L72.9021 97.0771H75.8379Z" fill="url(#paint7_linear_164_1122)"/>
<path d="M87.0278 93.1489L84.3192 99.219H83.6813L80.9727 93.1489H81.6717L84.0133 98.4212L86.3725 93.1489H87.0278Z" fill="url(#paint8_linear_164_1122)"/>
<path d="M95.9978 98.664V99.219H91.6727V93.1489H95.8667V93.7039H92.3192V95.8631H95.4822V96.4094H92.3192V98.664H95.9978Z" fill="url(#paint9_linear_164_1122)"/>
<path d="M106.386 93.1489V99.219H105.853L101.921 94.2936V99.219H101.275V93.1489H101.808L105.748 98.0744V93.1489H106.386Z" fill="url(#paint10_linear_164_1122)"/>
<path d="M114.604 99.271C113.812 99.271 113.194 99.0456 112.751 98.5946C112.309 98.1437 112.087 97.4876 112.087 96.6262V93.1489H112.734V96.6002C112.734 97.3055 112.894 97.8316 113.215 98.1784C113.535 98.5253 113.998 98.6987 114.604 98.6987C115.215 98.6987 115.681 98.5253 116.002 98.1784C116.322 97.8316 116.482 97.3055 116.482 96.6002V93.1489H117.111V96.6262C117.111 97.4876 116.89 98.1437 116.447 98.5946C116.011 99.0456 115.396 99.271 114.604 99.271Z" fill="url(#paint11_linear_164_1122)"/>
<path d="M127.142 98.664V99.219H122.817V93.1489H127.011V93.7039H123.464V95.8631H126.627V96.4094H123.464V98.664H127.142Z" fill="url(#paint12_linear_164_1122)"/>
<defs>
<linearGradient id="paint0_linear_164_1122" x1="99.0899" y1="15.7555" x2="99.0899" y2="57.6679" gradientUnits="userSpaceOnUse">
<stop stop-color="#E3C89A"/>
<stop offset="1" stop-color="#B39466"/>
</linearGradient>
<linearGradient id="paint1_linear_164_1122" x1="100.11" y1="65.9196" x2="100.11" y2="86.8151" gradientUnits="userSpaceOnUse">
<stop stop-color="#E3C89A"/>
<stop offset="1" stop-color="#B39466"/>
</linearGradient>
<linearGradient id="paint2_linear_164_1122" x1="100.11" y1="65.9196" x2="100.11" y2="86.8151" gradientUnits="userSpaceOnUse">
<stop stop-color="#E3C89A"/>
<stop offset="1" stop-color="#B39466"/>
</linearGradient>
<linearGradient id="paint3_linear_164_1122" x1="100.11" y1="65.9196" x2="100.11" y2="86.8151" gradientUnits="userSpaceOnUse">
<stop stop-color="#E3C89A"/>
<stop offset="1" stop-color="#B39466"/>
</linearGradient>
<linearGradient id="paint4_linear_164_1122" x1="100.11" y1="65.9196" x2="100.11" y2="86.8151" gradientUnits="userSpaceOnUse">
<stop stop-color="#E3C89A"/>
<stop offset="1" stop-color="#B39466"/>
</linearGradient>
<linearGradient id="paint5_linear_164_1122" x1="100.11" y1="65.9196" x2="100.11" y2="86.8151" gradientUnits="userSpaceOnUse">
<stop stop-color="#E3C89A"/>
<stop offset="1" stop-color="#B39466"/>
</linearGradient>
<linearGradient id="paint6_linear_164_1122" x1="100.11" y1="65.9196" x2="100.11" y2="86.8151" gradientUnits="userSpaceOnUse">
<stop stop-color="#E3C89A"/>
<stop offset="1" stop-color="#B39466"/>
</linearGradient>
<linearGradient id="paint7_linear_164_1122" x1="99.2008" y1="93.1489" x2="99.2008" y2="99.271" gradientUnits="userSpaceOnUse">
<stop stop-color="#E3C89A"/>
<stop offset="1" stop-color="#B39466"/>
</linearGradient>
<linearGradient id="paint8_linear_164_1122" x1="99.2008" y1="93.1489" x2="99.2008" y2="99.271" gradientUnits="userSpaceOnUse">
<stop stop-color="#E3C89A"/>
<stop offset="1" stop-color="#B39466"/>
</linearGradient>
<linearGradient id="paint9_linear_164_1122" x1="99.2008" y1="93.1489" x2="99.2008" y2="99.271" gradientUnits="userSpaceOnUse">
<stop stop-color="#E3C89A"/>
<stop offset="1" stop-color="#B39466"/>
</linearGradient>
<linearGradient id="paint10_linear_164_1122" x1="99.2008" y1="93.1489" x2="99.2008" y2="99.271" gradientUnits="userSpaceOnUse">
<stop stop-color="#E3C89A"/>
<stop offset="1" stop-color="#B39466"/>
</linearGradient>
<linearGradient id="paint11_linear_164_1122" x1="99.2008" y1="93.1489" x2="99.2008" y2="99.271" gradientUnits="userSpaceOnUse">
<stop stop-color="#E3C89A"/>
<stop offset="1" stop-color="#B39466"/>
</linearGradient>
<linearGradient id="paint12_linear_164_1122" x1="99.2008" y1="93.1489" x2="99.2008" y2="99.271" gradientUnits="userSpaceOnUse">
<stop stop-color="#E3C89A"/>
<stop offset="1" stop-color="#B39466"/>
</linearGradient>
</defs>
</svg>
